<svg height="64" viewBox="0 0 32 32" width="64" xmlns="http://www.w3.org/2000/svg"><g fill="#0868ac" transform="matrix(.33971137 0 0 .33971137 .113228 30.038246)"><path d="m5.9785-65.741c-8.335 11.98-7.2974 27.566-.93018 40.295.15138.30518.31006.60546.46631.90576.10012.19043.19409.38574.29785.57373.05862.11225.1245.22216.18555.32959.10862.20263.21972.39551.33202.59326.19776.34912.4004.6958.60791 1.0425.11475.19042.22828.38085.34669.57128.22949.37109.46509.7373.70556 1.1035.10012.15625.19775.3125.30029.46386.33204.49561.67139.98877 1.0217 1.4746.0087.0125.01825.0269.02925.039.055.0781.116.15381.17212.23194.30274.41747.61524.83007.9314 1.2378.116.14892.23315.29785.35034.44677.28199.35401.56885.70558.8606 1.0571.10862.13184.2185.26366.32836.39306.39185.46143.79101.92041 1.1987 1.3696.0075.007.01713.0171.02437.0244.01713.0195.03175.0317.04637.0512.39795.43457.80566.85937 1.2183 1.2842.12816.13184.25879.26368.39062.39308.31982.32226.64452.63965.9729.95458.13305.12695.26489.25635.39795.37842.43822.4126.88134.81787 1.333 1.2134.0075.007.01337.0125.02075.0171.07688.0684.15625.13184.23194.19775.39795.34424.80322.68604 1.2109 1.023.16601.13428.33448.26612.50171.40039.33325.26611.67016.52979 1.0095.78858.17945.13672.35889.27343.53956.41016.37475.27587.75195.54687 1.1328.81299.13915.10012.27344.19775.41259.29296.039.0269.0745.0537.1135.0806.36134.24902.7312.48827 1.0999.72754.15869.105.31616.21483.47608.31737.5664.35889 1.1414.7129 1.7224 1.0547.15746.0904.31738.17822.47606.26856.42725.24658.85694.48828 1.2927.7251.2356.12695.4773.24658.71534.36865.30761.16113.61279.3247.92529.48095.07075.0343.14405.0684.21362.1025.12574.061.25269.11963.37842.18311.48461.23194.9729.45899 1.4661.67872.105.0464.2063.0928.31006.13916.56518.24657 1.1352.48339 1.7102.71045.13794.0561.2771.10987.41626.16356.53222.20509 1.0718.40773 1.6138.59815.06838.0244.13429.0464.20264.0707.59449.20753 1.1951.40039 1.7993.58838.14404.0415.2893.0879.43456.1294.61524.18555 1.2232.40771 1.8579.5249 40.31 7.3511 52.019-24.224 52.019-24.224-9.834 12.812-27.29 16.191-43.829 12.429-.62622-.1416-1.2341-.33691-1.8457-.51758-.15504-.0464-.30762-.0927-.46021-.13916-.59692-.1831-1.189-.37597-1.7773-.57861-.08062-.0292-.16236-.0586-.24415-.0879-.52734-.18555-1.0486-.38086-1.5674-.58105-.14649-.0586-.29298-.11475-.43945-.17334-.56885-.22461-1.134-.45899-1.6919-.70312-.11475-.0489-.22461-.10013-.33814-.14894-.47974-.21728-.95459-.437-1.427-.66406-.13671-.0659-.27344-.12939-.4126-.19775-.371-.181-.738-.374-1.104-.562-.245-.129-.494-.251-.737-.386-.447-.239-.886-.488-1.323-.742-.148-.083-.298-.163-.447-.249-.581-.342-1.155-.696-1.723-1.055-.157-.1-.31-.207-.465-.31-.412-.266-.822-.537-1.226-.815-.134-.091-.263-.188-.395-.278-.39-.276-.776-.555-1.159-.838-.174-.129-.345-.259-.514-.388-.351-.269-.7-.54-1.046-.818-.15625-.1245-.3125-.24902-.46631-.37354-.43945-.36132-.87402-.7251-1.3025-1.0986-.04512-.039-.094-.0781-.14282-.11963-.46386-.40771-.91919-.8252-1.3696-1.2451-.13062-.1245-.25758-.24659-.38575-.3711-.33325-.31738-.66161-.6372-.98389-.96435-.12939-.1294-.25879-.25635-.38574-.38575-.41015-.41991-.81299-.84473-1.2073-1.2768-.0195-.022-.04025-.0415-.05975-.0635-.41749-.45655-.8252-.92285-1.2244-1.394-.10862-.12939-.21362-.2539-.32105-.38085-.29785-.35889-.59326-.72266-.88135-1.0889-.108-.132-.216-.267-.323-.403-.347-.45-.686-.899-1.018-1.355-9.1823-12.525-12.481-29.8-5.142-43.987"/><path d="m31.852-75.834c-6.0278 8.6743-5.7007 20.286-.99854 29.46.78858 1.5381 1.6748 3.0298 2.666 4.4507.90331 1.2939 1.9043 2.8345 3.103 3.8745.43458.47852.88868.94482 1.3525 1.4038.11712.11963.23681.23438.35645.35157.45044.43701.9082.8667 1.3818 1.2842.0195.0146.03663.0341.05613.0489.005.005.01.007.01337.0125.52368.45899 1.0644.90089 1.6138 1.3354.12212.0927.24292.19044.36621.28565.55054.42237 1.1121.8374 1.6882 1.2329.01713.0125.03175.0244.04888.0366.25391.17578.5127.33936.77026.50781.12325.0806.24049.16602.365.2417.41138.26367.82762.52002 1.2512.7666.05987.0366.11838.0684.177.1025.365.20995.73486.41747 1.106.61767.12939.0732.26122.13672.39306.20508.25635.13427.5127.271.77392.40039.039.0195.07937.0366.11712.0538.53101.26122 1.0669.5127 1.6138.75195.11712.0513.23804.0976.35644.14648.43701.18555.87891.36622 1.3232.53712.18799.0708.37841.13916.5664.20751.40284.14892.80689.28565 1.2146.42236.18432.0586.365.11963.54932.17579.57982.18066 1.1523.40771 1.7566.50781 31.123 5.1562 38.308-18.806 38.308-18.806-6.477 9.3286-19.02 13.779-32.405 10.305-.59449-.15625-1.1804-.32715-1.7627-.51027-.17822-.0537-.35279-.11225-.52979-.17088-.41381-.13429-.82519-.27589-1.2329-.42482-.18676-.0684-.37352-.13671-.55664-.20751-.44678-.1709-.88868-.34912-1.3269-.53467-.11962-.0513-.24049-.0976-.35768-.15137-.54931-.23926-1.0901-.49072-1.6235-.7544-.27466-.13427-.54444-.27587-.81421-.41503-.15625-.0805-.31372-.16113-.46998-.2417-.34668-.18799-.69091-.3833-1.0303-.58105-.0805-.0464-.16479-.0904-.24658-.13917-.42115-.24658-.83619-.50048-1.2476-.76171-.12695-.0806-.24902-.16846-.37598-.25147-.271-.17578-.54199-.354-.8081-.53467-.57374-.39551-1.1316-.81055-1.6821-1.2305-.12695-.10013-.2539-.19775-.37841-.29785-5.859-4.626-10.503-10.947-12.711-18.115-2.314-7.434-1.815-15.779 2.194-22.551"/><path d="m53.613-83.375c-3.5535 5.2295-3.9026 11.724-1.4368 17.5 2.6001 6.1304 7.9285 10.94 14.147 13.22.25635.0953.5127.18066.77271.26855.1135.0342.22582.0733.34058.10737.36621.11475.72998.24903 1.1084.31983 17.185 3.3203 21.846-8.8184 23.087-10.605-4.0832 5.8789-10.945 7.29-19.364 5.2466-.665-.162-1.396-.402-2.037-.629-.822-.293-1.632-.627-2.419-1.005-1.495-.718-2.92-1.59-4.241-2.588-7.534-5.716-12.214-16.621-7.298-25.502"/></g></svg>